<svg width="14" height="14" viewBox="0 0 14 14" fill="none" xmlns="http://www.w3.org/2000/svg">
<path d="M7 0C3.13438 0 0 3.13438 0 7C0 10.8656 3.13438 14 7 14C10.8656 14 14 10.8656 14 7C14 3.13438 10.8656 0 7 0ZM7 12.8125C3.79063 12.8125 1.1875 10.2094 1.1875 7C1.1875 3.79063 3.79063 1.1875 7 1.1875C10.2094 1.1875 12.8125 3.79063 12.8125 7C12.8125 10.2094 10.2094 12.8125 7 12.8125Z" fill="#EB4559"/>
<path d="M7 1.1875C3.79063 1.1875 1.1875 3.79063 1.1875 7C1.1875 10.2094 3.79063 12.8125 7 12.8125C10.2094 12.8125 12.8125 10.2094 12.8125 7C12.8125 3.79063 10.2094 1.1875 7 1.1875ZM7.5 10.375C7.5 10.4438 7.44375 10.5 7.375 10.5H6.625C6.55625 10.5 6.5 10.4438 6.5 10.375V6.125C6.5 6.05625 6.55625 6 6.625 6H7.375C7.44375 6 7.5 6.05625 7.5 6.125V10.375ZM7 5C6.80374 4.99599 6.61687 4.91522 6.47948 4.775C6.3421 4.63478 6.26515 4.4463 6.26515 4.25C6.26515 4.0537 6.3421 3.86522 6.47948 3.725C6.61687 3.58478 6.80374 3.50401 7 3.5C7.19626 3.50401 7.38313 3.58478 7.52052 3.725C7.6579 3.86522 7.73485 4.0537 7.73485 4.25C7.73485 4.4463 7.6579 4.63478 7.52052 4.775C7.38313 4.91522 7.19626 4.99599 7 5Z" fill="#EB4559" fill-opacity="0.1"/>
<path d="M6.25 4.25C6.25 4.44891 6.32902 4.63968 6.46967 4.78033C6.61032 4.92098 6.80109 5 7 5C7.19891 5 7.38968 4.92098 7.53033 4.78033C7.67098 4.63968 7.75 4.44891 7.75 4.25C7.75 4.05109 7.67098 3.86032 7.53033 3.71967C7.38968 3.57902 7.19891 3.5 7 3.5C6.80109 3.5 6.61032 3.57902 6.46967 3.71967C6.32902 3.86032 6.25 4.05109 6.25 4.25ZM7.375 6H6.625C6.55625 6 6.5 6.05625 6.5 6.125V10.375C6.5 10.4437 6.55625 10.5 6.625 10.5H7.375C7.44375 10.5 7.5 10.4437 7.5 10.375V6.125C7.5 6.05625 7.44375 6 7.375 6Z" fill="#EB4559"/>
</svg>
