<svg width="21" height="20" viewBox="0 0 21 20" fill="none" xmlns="http://www.w3.org/2000/svg">
<path d="M16.8352 19.1276L19.4952 16.4651C19.8202 16.1401 20.0027 15.7051 20.0027 15.2451C20.0027 14.7851 19.8227 14.3501 19.4952 14.0251L16.6327 11.1575C16.3077 10.8325 15.8702 10.65 15.4102 10.65C14.9477 10.65 14.5152 10.83 14.1877 11.1575L11.9452 13.3976C10.7562 12.8873 9.6759 12.1541 8.76264 11.2375C7.84013 10.32 7.11263 9.24754 6.59763 8.05753L8.84014 5.81753C9.16514 5.49252 9.34764 5.05752 9.34764 4.59752C9.34848 4.37063 9.30402 4.14585 9.21688 3.93636C9.12973 3.72686 9.00165 3.53687 8.84014 3.37751L5.97763 0.507502C5.65262 0.182501 5.21512 1.7634e-07 4.75512 1.81825e-07C4.29262 1.87341e-07 3.86012 0.180001 3.53262 0.507502L0.872604 3.16751C0.317602 3.72252 0.000101143 4.48752 0.000101152 5.27252C0.000101154 5.43502 0.0126 5.59252 0.0401002 5.75253C0.585102 9.06254 2.34761 12.3476 4.99762 15.0001C7.65263 17.6501 10.9376 19.4101 14.2502 19.9601C15.1902 20.1176 16.1577 19.8026 16.8352 19.1276ZM14.5477 18.1876C11.6001 17.7001 8.66014 16.1151 6.27263 13.7276C3.88512 11.34 2.30011 8.40254 1.81261 5.45502C1.75011 5.08502 1.87511 4.70502 2.14261 4.43502L4.75512 1.82251L7.52763 4.59252L4.52762 7.58753L4.50512 7.61003L4.70512 8.15004C5.30711 9.78736 6.25793 11.2742 7.49168 12.5075C8.72543 13.7409 10.2126 14.6912 11.8502 15.2926L12.3902 15.4926L15.4077 12.4726L18.1802 15.2426L15.5677 17.8551C15.2977 18.1251 14.9177 18.2501 14.5477 18.1876Z" fill="#EB4559"/>
</svg>
